<svg width="60" height="61" viewBox="0 0 60 61" fill="none" xmlns="http://www.w3.org/2000/svg">
<g id="Icon">
<path id="Circle 2" opacity="0.21" fill-rule="evenodd" clip-rule="evenodd" d="M0 30.1987V37.1987C0 49.9013 10.2975 60.1987 23 60.1987H30H37C49.7025 60.1987 60 49.9013 60 37.1987V30.1987V23.1987C60 10.4962 49.7025 0.19873 37 0.19873H30H23C10.2975 0.19873 0 10.4962 0 23.1987V30.1987Z" fill="#4AD991"/>
<g id="icon">
<path id="Path 95" d="M19.1111 41.0876H42.4444C43.3036 41.0876 44 41.784 44 42.6431C44 43.5023 43.3036 44.1987 42.4444 44.1987H17.5556C16.6964 44.1987 16 43.5023 16 42.6431V17.7543C16 16.8951 16.6964 16.1987 17.5556 16.1987C18.4147 16.1987 19.1111 16.8951 19.1111 17.7543V41.0876Z" fill="#4AD991"/>
<path id="Path 97" opacity="0.5" d="M24.9126 34.3739C24.325 35.0006 23.3406 35.0324 22.7138 34.4448C22.0871 33.8572 22.0553 32.8728 22.6429 32.2461L28.4762 26.0238C29.0445 25.4177 29.9888 25.3651 30.6208 25.9045L35.2248 29.8332L41.2235 22.235C41.7558 21.5607 42.734 21.4456 43.4083 21.9779C44.0826 22.5103 44.1977 23.4885 43.6653 24.1628L36.6653 33.0294C36.1186 33.722 35.1059 33.8216 34.4347 33.2488L29.7306 29.2347L24.9126 34.3739Z" fill="#4AD991"/>
</g>
</g>
</svg>
