<svg width="60" height="60" viewBox="0 0 60 60" fill="none" xmlns="http://www.w3.org/2000/svg">
<g id="live_svgrepo.com">
<rect width="60" height="60" rx="16" fill="#EFE3C2"/>
<g id="&#240;&#159;&#148;&#141;-Product-Icons">
<g id="ic_fluent_live_24_filled">
<path id="&#240;&#159;&#142;&#168;-Color" d="M19.6005 17.5125C20.2838 18.1958 20.2838 19.3036 19.6005 19.9869C14.1324 25.4551 14.1324 34.3207 19.6005 39.7888C20.2838 40.4721 20.2838 41.58 19.6005 42.2633C18.9172 42.9466 17.8094 42.9466 17.1261 42.2633C10.2913 35.4285 10.2913 24.3472 17.1261 17.5125C17.8094 16.8292 18.9172 16.8292 19.6005 17.5125ZM41.8769 17.5125C48.7116 24.3472 48.7116 35.4285 41.8769 42.2633C41.1936 42.9466 40.0857 42.9466 39.4024 42.2633C38.7191 41.58 38.7191 40.4721 39.4024 39.7888C44.8706 34.3207 44.8706 25.4551 39.4024 19.9869C38.7191 19.3036 38.7191 18.1958 39.4024 17.5125C40.0857 16.8292 41.1936 16.8292 41.8769 17.5125ZM24.7912 22.54C25.4745 23.2233 25.4745 24.3312 24.7912 25.0145C22.1125 27.6932 22.1125 32.0362 24.7912 34.7149C25.4745 35.3982 25.4745 36.5061 24.7912 37.1894C24.1079 37.8727 23.0001 37.8727 22.3168 37.1894C18.2715 33.1441 18.2715 26.5853 22.3168 22.54C23.0001 21.8567 24.1079 21.8567 24.7912 22.54ZM36.9662 22.54C41.0115 26.5853 41.0115 33.1441 36.9662 37.1894C36.2829 37.8727 35.175 37.8727 34.4917 37.1894C33.8084 36.5061 33.8084 35.3982 34.4917 34.7149C37.1705 32.0362 37.1705 27.6932 34.4917 25.0145C33.8084 24.3312 33.8084 23.2233 34.4917 22.54C35.175 21.8567 36.2829 21.8567 36.9662 22.54ZM29.6415 27.3857C31.091 27.3857 32.266 28.5607 32.266 30.0102C32.266 31.4597 31.091 32.6347 29.6415 32.6347C28.192 32.6347 27.0169 31.4597 27.0169 30.0102C27.0169 28.5607 28.192 27.3857 29.6415 27.3857Z" fill="#FF0000"/>
</g>
</g>
</g>
</svg>
