<svg width="60" height="60" viewBox="0 0 60 60" fill="none" xmlns="http://www.w3.org/2000/svg">
<g id="Icon">
<path id="Circle 2" opacity="0.21" fill-rule="evenodd" clip-rule="evenodd" d="M0 30V37C0 49.7025 10.2975 60 23 60H30H37C49.7025 60 60 49.7025 60 37V30V23C60 10.2975 49.7025 0 37 0H30H23C10.2975 0 0 10.2975 0 23V30Z" fill="#3E7B27"/>
<g id="Group">
<path id="Combined Shape" opacity="0.587821" fill-rule="evenodd" clip-rule="evenodd" d="M20.6665 23.3335C20.6665 26.279 23.0543 28.6668 25.9998 28.6668C28.9454 28.6668 31.3332 26.279 31.3332 23.3335C31.3332 20.3879 28.9454 18.0001 25.9998 18.0001C23.0543 18.0001 20.6665 20.3879 20.6665 23.3335ZM33.9998 28.6668C33.9998 30.876 35.7906 32.6668 37.9998 32.6668C40.2089 32.6668 41.9998 30.876 41.9998 28.6668C41.9998 26.4577 40.2089 24.6668 37.9998 24.6668C35.7906 24.6668 33.9998 26.4577 33.9998 28.6668Z" fill="#3E7B27"/>
<path id="Combined Shape_2" fill-rule="evenodd" clip-rule="evenodd" d="M25.9778 31.3334C19.6826 31.3334 14.5177 34.5688 14.0009 40.9324C13.9727 41.279 14.6356 42.0001 14.97 42.0001H36.9956C37.9972 42.0001 38.0128 41.1941 37.9972 40.9334C37.6065 34.391 32.3616 31.3334 25.9778 31.3334ZM37.4678 34.0005C39.1413 36.2288 40.1329 38.9984 40.133 41.9997H45.2748C45.9982 41.9997 46.0095 41.3952 45.9982 41.1997C45.7191 36.3463 42.0101 34.0499 37.4678 34.0005Z" fill="#3E7B27"/>
</g>
</g>
</svg>
